<?xml version="1.0" encoding="UTF-8" standalone="no"?>
<!-- Uploaded to: SVG Repo, www.svgrepo.com, Generator: SVG Repo Mixer Tools -->

<svg
   width="800px"
   height="800px"
   viewBox="0 0 24 24"
   fill="none"
   version="1.1"
   id="svg1"
   sodipodi:docname="moon.svg"
   inkscape:version="1.4.2 (ebf0e940d0, 2025-05-08)"
   xmlns:inkscape="http://www.inkscape.org/namespaces/inkscape"
   xmlns:sodipodi="http://sodipodi.sourceforge.net/DTD/sodipodi-0.dtd"
   xmlns="http://www.w3.org/2000/svg"
   xmlns:svg="http://www.w3.org/2000/svg">
  <defs
     id="defs1" />
  <sodipodi:namedview
     id="namedview1"
     pagecolor="#ffffff"
     bordercolor="#000000"
     borderopacity="0.25"
     inkscape:showpageshadow="2"
     inkscape:pageopacity="0.0"
     inkscape:pagecheckerboard="0"
     inkscape:deskcolor="#d1d1d1"
     inkscape:zoom="1.4575"
     inkscape:cx="400"
     inkscape:cy="400"
     inkscape:window-width="2540"
     inkscape:window-height="1420"
     inkscape:window-x="0"
     inkscape:window-y="0"
     inkscape:window-maximized="0"
     inkscape:current-layer="svg1" />
  <path
     d="m 12.071824,3.5836258 c 0.2195,-0.31844 0.2356,-0.7349 0.0415,-1.06941 -0.1941,-0.33451 -0.5637,-0.52709 -0.9491,-0.49454 -5.1245893,0.43289 -9.1480993,4.72813 -9.1480993,9.9642102 0,5.5228 4.47715,10 9.9999993,10 5.236,0 9.5313,-4.0236 9.9642,-9.1482 0.0325,-0.3854 -0.1601,-0.755 -0.4946,-0.9491 -0.3345,-0.1941 -0.7509,-0.1779 -1.0694,0.0416 -0.9661,0.6659 -2.1361,1.0557 -3.4002,1.0557 -3.3137,0 -6,-2.6863 -6,-6.0000402 0,-1.26407 0.3898,-2.43409 1.0557,-3.40022 z"
     fill="#fff1df"
     id="path1" />
</svg>
